<?xml version="1.0" standalone="no"?>
<svg xmlns="http://www.w3.org/2000/svg" viewBox="0 0 101 70" width="101" height="70"><g fill="#6a8bff" color="#6a8bff" transform="translate(32.938 0) scale(1.09375) "><svg width="32.0" height="32.0" x="0.0" y="0.0" viewBox="0 0 32 32"><path d="M1 0c-.552 0-1 .448-1 1s.448 1 1 1 1-.448 1-1h2c.039 0 .078.019.094.031v.031l.031.063 4.281 16.375v.031c-.005.268-.044.571-.094.719l-1.438 3.813c.206-.039.409-.063.625-.063.162 0 .312.009.469.031l1.313-3.469c.084-.251.116-.493.125-.719.179.092.381.156.594.156h18c.6 0 1.087-.5 1.188-1l2.625-13c.1-.6-.212-1-.813-1h-25c-.138 0-.24.023-.344.063l-.563-2.188h-.063c-.044-.251-.138-.489-.313-.625-.21-.163-.458-.25-.719-.25h-3zm6.5 23c-1.381 0-2.5 1.119-2.5 2.5s1.119 2.5 2.5 2.5 2.5-1.119 2.5-2.5-1.119-2.5-2.5-2.5zm19 0c-1.381 0-2.5 1.119-2.5 2.5s1.119 2.5 2.5 2.5 2.5-1.119 2.5-2.5-1.119-2.5-2.5-2.5zm-15.875 1c.155.314.29.645.344 1h11.969c.054-.355.188-.686.344-1h-12.656z" transform="translate(0 2)"></path></svg></g><line x1="33.9875" y1="41" x2="66.88749999999999" y2="41" stroke="#000" stroke-linecap="round"></line><path fill="#000" fill-rule="nonzero" d="M0 22.25L0 2.24L3.96 2.24L5.88 9.98Q6.19 11.27 6.36 12.44Q6.54 13.61 6.70 14.64L6.70 14.64L6.80 14.64Q6.96 13.61 7.14 12.44Q7.31 11.27 7.62 9.98L7.62 9.98L9.60 2.24L13.48 2.24L13.48 22.25L10.64 22.25L10.64 15.63Q10.64 14.11 10.67 12.70Q10.70 11.30 10.75 10.12Q10.79 8.94 10.85 8.04Q10.91 7.14 10.96 6.61L10.96 6.61L10.73 6.61L7.71 19.68L5.79 19.68L2.74 6.61L2.52 6.61Q2.57 7.14 2.63 8.04Q2.68 8.94 2.73 10.12Q2.78 11.30 2.81 12.70Q2.84 14.11 2.84 15.63L2.84 15.63L2.84 22.25L0 22.25ZM18.29 3.81L18.29 3.81Q17.47 3.81 17.00 3.32Q16.52 2.82 16.52 1.88L16.52 1.88Q16.52 1.35 16.65 0.99Q16.77 0.63 17.00 0.42Q17.23 0.20 17.55 0.10Q17.88 0 18.30 0L18.30 0Q19.18 0 19.64 0.45Q20.10 0.89 20.10 1.88L20.10 1.88Q20.10 2.79 19.63 3.30Q19.17 3.81 18.29 3.81ZM16.76 22.25L16.76 6.12L19.72 6.12L19.72 22.25L16.76 22.25ZM23.00 22.25L23.00 2.24L26.96 2.24L28.89 9.98Q29.19 11.27 29.37 12.44Q29.54 13.61 29.71 14.64L29.71 14.64L29.80 14.64Q29.96 13.61 30.14 12.44Q30.32 11.27 30.62 9.98L30.62 9.98L32.60 2.24L36.48 2.24L36.48 22.25L33.64 22.25L33.64 15.63Q33.64 14.11 33.67 12.70Q33.70 11.30 33.75 10.12Q33.80 8.94 33.86 8.04Q33.91 7.14 33.96 6.61L33.96 6.61L33.74 6.61L30.71 19.68L28.79 19.68L25.75 6.61L25.52 6.61Q25.57 7.14 25.63 8.04Q25.69 8.94 25.73 10.12Q25.78 11.30 25.81 12.70Q25.84 14.11 25.84 15.63L25.84 15.63L25.84 22.25L23.00 22.25ZM43.61 22.43L43.61 22.43Q42.56 22.43 41.76 22.04Q40.96 21.66 40.41 20.84Q39.86 20.02 39.57 18.73Q39.29 17.45 39.29 15.64L39.29 15.64L39.29 12.60Q39.29 11.06 39.52 9.97Q39.75 8.87 40.12 8.13Q40.49 7.38 40.97 6.95Q41.46 6.52 41.98 6.29Q42.49 6.06 43.00 5.99Q43.51 5.93 43.95 5.93L43.95 5.93Q44.74 5.93 45.48 6.17Q46.22 6.41 46.78 6.99Q47.34 7.57 47.68 8.54Q48.01 9.52 48.01 10.97L48.01 10.97Q48.01 11.46 47.98 11.96Q47.95 12.47 47.91 12.96Q47.86 13.44 47.78 13.90Q47.71 14.36 47.63 14.74L47.63 14.74L42.27 14.74L42.27 16.38Q42.27 17.44 42.35 18.16Q42.43 18.88 42.63 19.32Q42.82 19.76 43.15 19.95Q43.49 20.14 43.99 20.14L43.99 20.14Q44.26 20.14 44.52 20.03Q44.78 19.92 44.97 19.66Q45.16 19.41 45.28 18.98Q45.40 18.55 45.40 17.92L45.40 17.92L45.40 17.41L47.87 17.41L47.87 18.04Q47.87 20.33 46.78 21.38Q45.68 22.43 43.61 22.43ZM42.27 12.75L45.25 12.75Q45.26 12.62 45.27 12.40Q45.28 12.19 45.29 11.95Q45.29 11.72 45.29 11.49Q45.29 11.26 45.29 11.10L45.29 11.10Q45.29 9.50 44.92 8.80Q44.54 8.10 43.80 8.10L43.80 8.10Q43.42 8.10 43.13 8.28Q42.83 8.46 42.64 8.89Q42.46 9.32 42.36 10.02Q42.27 10.72 42.27 11.77L42.27 11.77L42.27 12.75ZM50.52 22.25L50.52 6.12L52.69 6.12L52.95 7.76Q53.44 6.84 54.08 6.39Q54.71 5.93 55.38 5.93L55.38 5.93Q56.66 5.93 57.27 6.71Q57.88 7.50 57.88 9.07L57.88 9.07Q57.88 9.27 57.85 9.54Q57.82 9.82 57.77 10.12Q57.71 10.42 57.64 10.72Q57.56 11.02 57.48 11.26L57.48 11.26L55.42 11.26L55.42 9.76Q55.42 9.27 55.35 8.95Q55.29 8.64 55.18 8.44Q55.08 8.25 54.94 8.17Q54.80 8.10 54.63 8.10L54.63 8.10Q54.28 8.10 53.98 8.33Q53.68 8.55 53.48 8.96L53.48 8.96L53.48 22.25L50.52 22.25ZM63.52 22.43L63.52 22.43Q61.48 22.43 60.40 20.75Q59.33 19.08 59.33 15.64L59.33 15.64L59.33 12.60Q59.33 11.06 59.55 9.97Q59.78 8.87 60.15 8.13Q60.52 7.38 60.99 6.95Q61.46 6.52 61.97 6.29Q62.47 6.06 62.96 5.99Q63.46 5.93 63.87 5.93L63.87 5.93Q64.69 5.93 65.37 6.15Q66.05 6.36 66.54 6.80Q67.03 7.24 67.30 7.91Q67.57 8.58 67.57 9.48L67.57 9.48Q67.57 10.04 67.52 10.45Q67.46 10.85 67.37 11.23L67.37 11.23L65.00 11.23L65.00 10.69Q65.00 9.47 64.72 8.78Q64.43 8.10 63.77 8.10L63.77 8.10Q63.41 8.10 63.14 8.27Q62.87 8.44 62.69 8.85Q62.51 9.26 62.42 9.95Q62.33 10.64 62.33 11.68L62.33 11.68L62.33 16.27Q62.33 17.32 62.40 18.06Q62.47 18.80 62.65 19.26Q62.82 19.72 63.12 19.93Q63.41 20.14 63.84 20.14L63.84 20.14Q64.07 20.14 64.28 20.03Q64.49 19.92 64.65 19.66Q64.80 19.41 64.90 18.98Q65.00 18.55 65.00 17.92L65.00 17.92L65.00 17.41L67.56 17.41L67.56 18.04Q67.56 20.33 66.54 21.38Q65.53 22.43 63.52 22.43ZM72.19 22.43L72.19 22.43Q71.44 22.43 70.86 22.13Q70.28 21.83 69.88 21.32Q69.48 20.80 69.28 20.09Q69.07 19.38 69.07 18.55L69.07 18.55Q69.07 17.55 69.32 16.78Q69.56 16.01 70.04 15.39Q70.51 14.77 71.21 14.26Q71.92 13.75 72.84 13.29L72.84 13.29Q73.29 13.07 73.85 12.84Q74.40 12.61 74.84 12.45L74.84 12.45L74.84 10.31Q74.84 9.84 74.80 9.44Q74.77 9.04 74.63 8.74Q74.50 8.44 74.23 8.27Q73.96 8.10 73.49 8.10L73.49 8.10Q73.17 8.10 72.87 8.21Q72.57 8.33 72.35 8.61Q72.12 8.89 71.98 9.36Q71.85 9.83 71.85 10.52L71.85 10.52L71.85 11.23L69.59 11.23Q69.48 10.77 69.43 10.39Q69.38 10.01 69.38 9.63L69.38 9.63Q69.38 8.73 69.69 8.04Q70.00 7.35 70.55 6.88Q71.11 6.41 71.88 6.17Q72.66 5.93 73.58 5.93L73.58 5.93Q74.79 5.93 75.59 6.19Q76.38 6.46 76.86 6.98Q77.33 7.51 77.53 8.31Q77.72 9.11 77.72 10.17L77.72 10.17L77.72 22.25L75.52 22.25L75.30 20.87Q74.82 21.56 74.02 22.00Q73.22 22.43 72.19 22.43ZM73.50 20.14L73.50 20.14Q73.88 20.14 74.23 19.95Q74.59 19.76 74.84 19.48L74.84 19.48L74.84 14.43Q74.60 14.52 74.31 14.65Q74.02 14.78 73.68 14.99L73.68 14.99Q73.36 15.19 73.05 15.47Q72.75 15.75 72.51 16.14Q72.27 16.52 72.12 17.01Q71.98 17.50 71.98 18.09L71.98 18.09Q71.98 19.02 72.34 19.58Q72.70 20.14 73.50 20.14ZM83.88 22.44L83.88 22.44Q83.61 22.44 83.25 22.39Q82.89 22.34 82.50 22.15Q82.11 21.96 81.74 21.59Q81.36 21.21 81.07 20.56Q80.78 19.91 80.60 18.95Q80.41 17.99 80.41 16.62L80.41 16.62L80.41 11.50Q80.41 10.14 80.61 9.20Q80.80 8.26 81.12 7.65Q81.43 7.03 81.83 6.69Q82.22 6.34 82.61 6.18Q83.00 6.01 83.36 5.98Q83.72 5.94 83.95 5.94L83.95 5.94Q84.39 5.94 84.77 6.06Q85.16 6.18 85.48 6.37Q85.79 6.56 86.04 6.80Q86.29 7.04 86.45 7.29L86.45 7.29L86.46 7.28L86.37 5.24L86.37 0.94L89.32 0.94L89.32 22.25L87.01 22.25L86.75 20.75Q86.55 21.07 86.30 21.38Q86.04 21.68 85.69 21.92Q85.34 22.16 84.89 22.30Q84.45 22.44 83.88 22.44ZM84.89 20.14L84.89 20.14Q85.18 20.14 85.41 20.04Q85.64 19.95 85.82 19.79Q86.00 19.63 86.14 19.42Q86.27 19.21 86.37 18.98L86.37 18.98L86.37 9.28Q86.14 8.79 85.78 8.44Q85.41 8.10 84.88 8.10L84.88 8.10Q84.55 8.10 84.28 8.21Q84.01 8.33 83.81 8.65Q83.61 8.98 83.50 9.54Q83.39 10.11 83.39 11.02L83.39 11.02L83.39 17.20Q83.39 18.11 83.50 18.68Q83.61 19.25 83.81 19.58Q84.01 19.90 84.29 20.02Q84.56 20.14 84.89 20.14ZM96.43 22.43L96.43 22.43Q95.92 22.43 95.38 22.35Q94.85 22.27 94.35 22.01Q93.86 21.75 93.42 21.27Q92.98 20.79 92.65 20.00Q92.32 19.22 92.13 18.07Q91.95 16.92 91.95 15.33L91.95 15.33L91.95 12.80Q91.95 11.23 92.14 10.11Q92.33 8.99 92.67 8.23Q93 7.46 93.45 7.01Q93.89 6.56 94.39 6.32Q94.89 6.08 95.41 6.01Q95.94 5.93 96.45 5.93L96.45 5.93Q96.93 5.93 97.44 6Q97.96 6.07 98.45 6.30Q98.94 6.53 99.38 6.98Q99.82 7.43 100.15 8.19Q100.49 8.95 100.68 10.08Q100.88 11.21 100.88 12.80L100.88 12.80L100.88 15.33Q100.88 16.90 100.68 18.04Q100.48 19.17 100.14 19.96Q99.80 20.74 99.35 21.23Q98.91 21.71 98.41 21.98Q97.92 22.25 97.41 22.34Q96.90 22.43 96.43 22.43ZM96.46 20.14L96.46 20.14Q96.86 20.14 97.13 19.94Q97.41 19.73 97.58 19.27Q97.75 18.80 97.82 18.03Q97.90 17.26 97.90 16.13L97.90 16.13L97.90 12.15Q97.90 11.02 97.82 10.24Q97.75 9.47 97.58 8.99Q97.41 8.52 97.13 8.31Q96.86 8.10 96.46 8.10L96.46 8.10Q96.04 8.10 95.75 8.31Q95.46 8.52 95.27 8.99Q95.09 9.47 95.00 10.24Q94.92 11.02 94.92 12.15L94.92 12.15L94.92 16.13Q94.92 17.26 95.00 18.03Q95.09 18.80 95.27 19.27Q95.46 19.73 95.75 19.94Q96.04 20.14 96.46 20.14Z" transform="translate(0, 47)"></path></svg>